:SAMPLES-PER-SECOND 30
:FULLY-SPECIFIED
:DEGREES
202
root  7.47975 38.9136 6.6906 -173.3 -62.8855 176.298
RightUpLeg  -17.7643 8.55633 -7.15149
RightLeg  28.1513 0.88484 0.292127
RightFoot  -9.73014 -0.128222 4.41222
RightToes  -5.28226e-011 1.30204e-014 -6.03759e-014
Spine  15.2079 -8.88346 -27.0729
Spine1  -10.7607 -14.1383 28.2361
HEad  -52.5278 -64.4914 55.5372
LeftShoulder1  -0.0530545 -0.634806 11.135
LeftArm  85.4879 -57.7332 -144.262
LeftForeArm  122.322 -81.3927 -89.233
LeftHand  -1.00878 -4.22139 12.435
RightShoulder  1.19975 2.44503 13.2339
RightArm  28.8051 -14.7189 26.01
RightForeArm  29.4648 1.43384 18.2039
RightHand  0.209652 -7.35849 -13.6831
LeftUpLeg  4.2086 4.57263 20.8748
LeftLeg  39.5459 -6.70174 -5.67525
LeftFoot  -14.1489 -0.545215 -25.4862
LeftToes  -2.42178e-010 -1.66495e-011 -2.88221e-011
203
root  7.5327 38.7704 7.38153 -168.647 -64.3514 172.315
RightUpLeg  -19.83 6.73741 -10.2257
RightLeg  29.4443 1.14452 0.458658
RightFoot  -9.92041 -0.14106 5.96613
RightToes  -5.28226e-011 1.30204e-014 -6.03759e-014
Spine  14.6123 -9.18899 -26.5743
Spine1  -11.337 -13.8552 26.3202
HEad  -58.2546 -65.4389 59.4745
LeftShoulder1  0.00166209 -1.83024 9.66199
LeftArm  78.7949 -56.9632 -134.844
LeftForeArm  115.671 -81.3018 -83.2461
LeftHand  -1.15673 -3.36143 15.5499
RightShoulder  1.07432 2.07042 12.2445
RightArm  28.6518 -16.0437 23.5736
RightForeArm  31.4906 1.19694 18.1235
RightHand  0.252584 -8.22761 -11.4741
LeftUpLeg  3.23562 13.2115 17.2661
LeftLeg  21.5889 -6.1151 -2.44819
LeftFoot  -14.5335 -0.690491 -27.3929
LeftToes  -2.42178e-010 -1.66495e-011 -2.88221e-011
204
root  7.70149 38.5587 8.20203 -167.317 -67.4108 170.252
RightUpLeg  -19.778 5.55931 -11.8443
RightLeg  30.8092 -1.08656 -0.934371
RightFoot  -10.3709 -0.12933 7.10714
RightToes  -5.28226e-011 1.30204e-014 -6.03759e-014
Spine  14.4958 -9.12748 -25.6389
Spine1  -8.99209 -14.2124 25.1222
HEad  -59.8467 -64.5897 59.2589
LeftShoulder1  0.154405 -2.86523 6.85268
LeftArm  69.8818 -55.1342 -122.409
LeftForeArm  96.6153 -80.441 -65.4956
LeftHand  -1.16253 -2.43292 17.4163
RightShoulder  0.9581 1.80515 10.8827
RightArm  24.1912 -15.4471 23.001
RightForeArm  38.6979 -0.115162 17.7896
RightHand  0.245477 -9.20282 -8.6055
LeftUpLeg  -0.255574 15.2706 13.1335
LeftLeg  16.6947 -1.9265 -0.569675
LeftFoot  -13.8194 -0.467199 -25.0259
LeftToes  -2.42178e-010 -1.66495e-011 -2.88221e-011
205
root  7.94605 38.4172 9.00618 -171.165 -71.2604 172.149
RightUpLeg  -17.6733 3.19175 -11.4881
RightLeg  31.6057 -1.99166 -1.55548
RightFoot  -10.0096 -0.17193 8.8284
RightToes  -5.28226e-011 1.30204e-014 -6.03759e-014
Spine  14.7697 -8.35471 -23.9465
Spine1  -5.02091 -14.3263 23.8715
HEad  -55.7208 -64.0513 54.2875
LeftShoulder1  0.347199 -3.55693 3.99805
LeftArm  60.6276 -50.8226 -109.846
LeftForeArm  74.5475 -77.5685 -44.2136
LeftHand  -0.844365 -1.46334 14.1756
RightShoulder  0.895706 1.65533 10.1216
RightArm  16.5337 -13.6166 24.2229
RightForeArm  50.7924 -2.00742 17.0186
RightHand  0.224499 -10.9463 -5.74055
LeftUpLeg  -3.94059 10.6744 11.163
LeftLeg  21.316 3.45435 1.90468
LeftFoot  -13.9062 -0.383679 -20.7197
LeftToes  -2.42178e-010 -1.66495e-011 -2.88221e-011
206
root  8.19293 38.3214 9.7832 -177.802 -74.2454 177.36
RightUpLeg  -16.9647 -1.41372 -10.9017
RightLeg  33.006 0.992258 0.480259
RightFoot  -6.99034 -0.522279 12.0677
RightToes  -5.28226e-011 1.30204e-014 -6.03759e-014
Spine  14.8174 -6.98883 -20.9222
Spine1  -2.49267 -13.0446 21.7956
HEad  -44.7194 -64.8898 43.9183
LeftShoulder1  0.690369 -4.90537 0.34944
LeftArm  51.0251 -41.7634 -97.3738
LeftForeArm  59.9394 -72.3187 -28.7192
LeftHand  -0.303595 0.662852 7.34713
RightShoulder  0.948011 1.66844 11.1931
RightArm  8.37867 -11.6101 26.3734
RightForeArm  64.1562 -3.75307 15.9237
RightHand  0.140467 -12.5752 -3.20318
LeftUpLeg  -5.78253 6.87542 11.7354
LeftLeg  25.6407 5.08572 2.98067
LeftFoot  -14.5272 -0.413536 -17.8454
LeftToes  -2.42178e-010 -1.66495e-011 -2.88221e-011
